<svg width="18" height="18" viewBox="0 0 18 18" fill="none" xmlns="http://www.w3.org/2000/svg">
<path d="M12.8337 10.6667C12.667 10.5834 11.5837 10.0834 11.417 10C11.2503 9.91671 11.0837 9.91671 10.917 10.0834C10.7503 10.25 10.417 10.75 10.2503 10.9167C10.167 11.0834 10.0003 11.0834 9.83366 11C9.25033 10.75 8.66699 10.4167 8.16699 10C7.75033 9.58337 7.33366 9.08337 7.00033 8.58337C6.91699 8.41671 7.00033 8.25004 7.08366 8.16671C7.16699 8.08337 7.25033 7.91671 7.41699 7.83337C7.50033 7.75004 7.58366 7.58337 7.58366 7.50004C7.66699 7.41671 7.66699 7.25004 7.58366 7.16671C7.50033 7.08337 7.08366 6.08337 6.91699 5.66671C6.83366 5.08337 6.66699 5.08337 6.50033 5.08337C6.41699 5.08337 6.25033 5.08337 6.08366 5.08337C5.91699 5.08337 5.66699 5.25004 5.58366 5.33337C5.08366 5.83337 4.83366 6.41671 4.83366 7.08337C4.91699 7.83337 5.16699 8.58337 5.66699 9.25004C6.58366 10.5834 7.75033 11.6667 9.16699 12.3334C9.58366 12.5 9.91699 12.6667 10.3337 12.75C10.7503 12.9167 11.167 12.9167 11.667 12.8334C12.2503 12.75 12.7503 12.3334 13.0837 11.8334C13.2503 11.5 13.2503 11.1667 13.167 10.8334C13.167 10.8334 13.0003 10.75 12.8337 10.6667ZM14.917 3.08337C11.667 -0.166626 6.41699 -0.166626 3.16699 3.08337C0.500325 5.75004 0.000325501 9.83337 1.83366 13.0834L0.666992 17.3334L5.08366 16.1667C6.33366 16.8334 7.66699 17.1667 9.00033 17.1667C13.5837 17.1667 17.2503 13.5 17.2503 8.91671C17.3337 6.75004 16.417 4.66671 14.917 3.08337ZM12.667 14.75C11.5837 15.4167 10.3337 15.8334 9.00033 15.8334C7.75033 15.8334 6.58366 15.5 5.50033 14.9167L5.25033 14.75L2.66699 15.4167L3.33366 12.9167L3.16699 12.6667C1.16699 9.33337 2.16699 5.16671 5.41699 3.08337C8.66699 1.00004 12.8337 2.08337 14.8337 5.25004C16.8337 8.50004 15.917 12.75 12.667 14.75Z" fill="white"/>
</svg>
