<svg width="24" height="18" viewBox="0 0 24 18" fill="none" xmlns="http://www.w3.org/2000/svg">
<path d="M22.5396 3.42C22.4208 2.94541 22.1789 2.51057 21.8382 2.15941C21.4976 1.80824 21.0703 1.55318 20.5996 1.42C18.8796 1 11.9996 1 11.9996 1C11.9996 1 5.1196 1 3.3996 1.46C2.92884 1.59318 2.50157 1.84824 2.16094 2.19941C1.82031 2.55057 1.57838 2.98541 1.4596 3.46C1.14481 5.20556 0.990831 6.97631 0.999595 8.75C0.988374 10.537 1.14236 12.3213 1.4596 14.08C1.59055 14.5398 1.8379 14.9581 2.17774 15.2945C2.51758 15.6308 2.93842 15.8738 3.3996 16C5.1196 16.46 11.9996 16.46 11.9996 16.46C11.9996 16.46 18.8796 16.46 20.5996 16C21.0703 15.8668 21.4976 15.6118 21.8382 15.2606C22.1789 14.9094 22.4208 14.4746 22.5396 14C22.852 12.2676 23.0059 10.5103 22.9996 8.75C23.0108 6.96295 22.8568 5.1787 22.5396 3.42Z" stroke="#FFFAF1" stroke-width="2" stroke-linecap="round" stroke-linejoin="round"/>
</svg>
